<mxfile host="app.diagrams.net" agent="Mozilla/5.0 (Windows NT 10.0; Win64; x64) AppleWebKit/537.36 (KHTML, like Gecko) Chrome/134.0.0.0 Safari/537.36" version="26.1.1">
  <diagram id="sVJ-bVKalwbCZyJgPwky" name="Страница — 1">
    <mxGraphModel dx="3452" dy="1325" grid="1" gridSize="10" guides="1" tooltips="1" connect="1" arrows="1" fold="1" page="1" pageScale="1" pageWidth="827" pageHeight="1169" background="#FFFFFF" math="0" shadow="0">
      <root>
        <mxCell id="0" />
        <mxCell id="1" parent="0" />
        <mxCell id="ZTzpjaBNMDJltc8WFVjV-1" value="&lt;p data-pm-slice=&quot;1 1 [&amp;quot;ordered_list&amp;quot;,{&amp;quot;spread&amp;quot;:false,&amp;quot;startingNumber&amp;quot;:1,&amp;quot;start&amp;quot;:76,&amp;quot;end&amp;quot;:260},&amp;quot;regular_list_item&amp;quot;,{&amp;quot;start&amp;quot;:76,&amp;quot;end&amp;quot;:92}]&quot;&gt;&lt;font style=&quot;font-size: 15px;&quot;&gt;&lt;b&gt;Онлайн-запись&lt;/b&gt;&lt;/font&gt;&lt;/p&gt;" style="rounded=0;whiteSpace=wrap;html=1;fillColor=#dae8fc;strokeColor=#6c8ebf;" parent="1" vertex="1">
          <mxGeometry y="35" width="480" height="40" as="geometry" />
        </mxCell>
        <mxCell id="ZTzpjaBNMDJltc8WFVjV-2" value="&lt;p data-pm-slice=&quot;1 1 []&quot;&gt;&lt;strong&gt;Работа с пациентами&lt;/strong&gt;&lt;/p&gt;" style="rounded=0;whiteSpace=wrap;html=1;fillColor=#dae8fc;strokeColor=#6c8ebf;fontSize=15;" parent="1" vertex="1">
          <mxGeometry x="540" y="35" width="283" height="40" as="geometry" />
        </mxCell>
        <mxCell id="ZTzpjaBNMDJltc8WFVjV-4" value="&lt;p data-pm-slice=&quot;1 1 []&quot;&gt;&lt;span&gt;&lt;strong&gt;&lt;font style=&quot;font-size: 15px;&quot;&gt;Анализ данных и отчетность&lt;/font&gt;&lt;/strong&gt;&lt;/span&gt;&lt;/p&gt;" style="rounded=0;whiteSpace=wrap;html=1;verticalAlign=middle;fillColor=#dae8fc;strokeColor=#6c8ebf;" parent="1" vertex="1">
          <mxGeometry x="883" y="35" width="280" height="40" as="geometry" />
        </mxCell>
        <mxCell id="ZTzpjaBNMDJltc8WFVjV-5" value="&lt;h3 data-pm-slice=&quot;1 1 []&quot;&gt;&lt;strong&gt;Активности&lt;/strong&gt;&lt;/h3&gt;&lt;p&gt;&lt;/p&gt;" style="text;html=1;align=center;verticalAlign=middle;whiteSpace=wrap;rounded=0;fontSize=15;" parent="1" vertex="1">
          <mxGeometry x="-220" y="45" width="100" height="30" as="geometry" />
        </mxCell>
        <mxCell id="ZTzpjaBNMDJltc8WFVjV-6" value="&lt;p data-pm-slice=&quot;1 1 [&amp;quot;list&amp;quot;,{&amp;quot;spread&amp;quot;:false,&amp;quot;start&amp;quot;:311,&amp;quot;end&amp;quot;:444},&amp;quot;regular_list_item&amp;quot;,{&amp;quot;start&amp;quot;:311,&amp;quot;end&amp;quot;:339}]&quot;&gt;Запись на прием через приложение&lt;/p&gt;" style="rounded=0;whiteSpace=wrap;html=1;fillColor=#d5e8d4;strokeColor=#82b366;" parent="1" vertex="1">
          <mxGeometry x="100" y="100" width="80" height="60" as="geometry" />
        </mxCell>
        <mxCell id="ZTzpjaBNMDJltc8WFVjV-7" value="&lt;span&gt;&lt;font style=&quot;font-size: 17px;&quot;&gt;Задачи&lt;/font&gt;&lt;/span&gt;" style="text;html=1;align=center;verticalAlign=middle;whiteSpace=wrap;rounded=0;fontSize=15;fontStyle=1" parent="1" vertex="1">
          <mxGeometry x="-190" y="130" width="70" height="30" as="geometry" />
        </mxCell>
        <mxCell id="ZTzpjaBNMDJltc8WFVjV-9" value="&lt;p data-pm-slice=&quot;1 1 [&amp;quot;list&amp;quot;,{&amp;quot;spread&amp;quot;:false,&amp;quot;start&amp;quot;:311,&amp;quot;end&amp;quot;:444},&amp;quot;regular_list_item&amp;quot;,{&amp;quot;start&amp;quot;:389,&amp;quot;end&amp;quot;:415}]&quot;&gt;Просмотр истории записей&lt;/p&gt;" style="rounded=0;whiteSpace=wrap;html=1;fillColor=#d5e8d4;strokeColor=#82b366;" parent="1" vertex="1">
          <mxGeometry x="300" y="100" width="80" height="60" as="geometry" />
        </mxCell>
        <mxCell id="ZTzpjaBNMDJltc8WFVjV-10" value="&lt;p data-pm-slice=&quot;1 1 [&amp;quot;list&amp;quot;,{&amp;quot;spread&amp;quot;:false,&amp;quot;start&amp;quot;:311,&amp;quot;end&amp;quot;:444},&amp;quot;regular_list_item&amp;quot;,{&amp;quot;start&amp;quot;:416,&amp;quot;end&amp;quot;:444}]&quot;&gt;Доступ к расписанию врачей&lt;/p&gt;" style="rounded=0;whiteSpace=wrap;html=1;fillColor=#d5e8d4;strokeColor=#82b366;" parent="1" vertex="1">
          <mxGeometry x="400" y="100" width="80" height="60" as="geometry" />
        </mxCell>
        <mxCell id="ZTzpjaBNMDJltc8WFVjV-11" value="&lt;p data-pm-slice=&quot;1 1 [&amp;quot;list&amp;quot;,{&amp;quot;spread&amp;quot;:false,&amp;quot;start&amp;quot;:311,&amp;quot;end&amp;quot;:444},&amp;quot;regular_list_item&amp;quot;,{&amp;quot;start&amp;quot;:340,&amp;quot;end&amp;quot;:365}]&quot;&gt;Отмена и перенос записи&lt;/p&gt;" style="rounded=0;whiteSpace=wrap;html=1;fillColor=#d5e8d4;strokeColor=#82b366;" parent="1" vertex="1">
          <mxGeometry x="200" y="100" width="80" height="60" as="geometry" />
        </mxCell>
        <mxCell id="ZTzpjaBNMDJltc8WFVjV-13" value="Доступ к медицинской карте" style="rounded=0;whiteSpace=wrap;html=1;fillColor=#d5e8d4;strokeColor=#82b366;" parent="1" vertex="1">
          <mxGeometry x="540" y="100" width="80" height="60" as="geometry" />
        </mxCell>
        <mxCell id="ZTzpjaBNMDJltc8WFVjV-14" value="Внесение новых записей" style="rounded=0;whiteSpace=wrap;html=1;fillColor=#d5e8d4;strokeColor=#82b366;" parent="1" vertex="1">
          <mxGeometry x="640" y="100" width="80" height="60" as="geometry" />
        </mxCell>
        <mxCell id="ZTzpjaBNMDJltc8WFVjV-15" value="Выписка рецептов" style="rounded=0;whiteSpace=wrap;html=1;fillColor=#d5e8d4;strokeColor=#82b366;" parent="1" vertex="1">
          <mxGeometry x="743" y="100" width="80" height="60" as="geometry" />
        </mxCell>
        <mxCell id="ZTzpjaBNMDJltc8WFVjV-16" value="Поиск информации о пациентах" style="rounded=0;whiteSpace=wrap;html=1;fillColor=#d5e8d4;strokeColor=#82b366;" parent="1" vertex="1">
          <mxGeometry x="883" y="105" width="83" height="60" as="geometry" />
        </mxCell>
        <mxCell id="ZTzpjaBNMDJltc8WFVjV-17" value="Составление&amp;nbsp; отчетов о занятости врачей" style="rounded=0;whiteSpace=wrap;html=1;fillColor=#d5e8d4;strokeColor=#82b366;" parent="1" vertex="1">
          <mxGeometry x="983" y="105" width="83" height="60" as="geometry" />
        </mxCell>
        <mxCell id="ZTzpjaBNMDJltc8WFVjV-18" value="Анализ популярности услуг" style="rounded=0;whiteSpace=wrap;html=1;fillColor=#d5e8d4;strokeColor=#82b366;" parent="1" vertex="1">
          <mxGeometry x="1086" y="105" width="80" height="60" as="geometry" />
        </mxCell>
        <mxCell id="0HlxKGMz-UtDuhilrdEh-2" value="&lt;font style=&quot;font-size: 13px;&quot;&gt;Уведомления&lt;/font&gt;" style="rounded=0;whiteSpace=wrap;html=1;fillColor=#d5e8d4;strokeColor=#82b366;" vertex="1" parent="1">
          <mxGeometry y="100" width="80" height="60" as="geometry" />
        </mxCell>
        <mxCell id="0HlxKGMz-UtDuhilrdEh-12" value="&lt;span&gt;&lt;font style=&quot;font-size: 17px;&quot;&gt;Истории&lt;/font&gt;&lt;/span&gt;" style="text;html=1;align=center;verticalAlign=middle;whiteSpace=wrap;rounded=0;fontSize=15;fontStyle=1" vertex="1" parent="1">
          <mxGeometry x="-210" y="210" width="90" height="30" as="geometry" />
        </mxCell>
        <mxCell id="0HlxKGMz-UtDuhilrdEh-13" value="&lt;h3 data-pm-slice=&quot;1 1 []&quot;&gt;&lt;strong&gt;Релиз 1&lt;/strong&gt;&lt;/h3&gt;" style="text;html=1;align=center;verticalAlign=middle;whiteSpace=wrap;rounded=0;fontSize=15;fontStyle=1" vertex="1" parent="1">
          <mxGeometry x="-205" y="310" width="80" height="30" as="geometry" />
        </mxCell>
        <mxCell id="0HlxKGMz-UtDuhilrdEh-14" value="&lt;p data-pm-slice=&quot;1 1 [&amp;quot;list&amp;quot;,{&amp;quot;spread&amp;quot;:false,&amp;quot;start&amp;quot;:1257,&amp;quot;end&amp;quot;:1347},&amp;quot;regular_list_item&amp;quot;,{&amp;quot;start&amp;quot;:1319,&amp;quot;end&amp;quot;:1347}]&quot;&gt;Доступ к истории посещений&lt;/p&gt;" style="rounded=0;whiteSpace=wrap;html=1;fillColor=#fff2cc;strokeColor=#d6b656;" vertex="1" parent="1">
          <mxGeometry x="300" y="195" width="80" height="60" as="geometry" />
        </mxCell>
        <mxCell id="0HlxKGMz-UtDuhilrdEh-15" value="&lt;p data-pm-slice=&quot;1 1 [&amp;quot;list&amp;quot;,{&amp;quot;spread&amp;quot;:false,&amp;quot;start&amp;quot;:1257,&amp;quot;end&amp;quot;:1347},&amp;quot;regular_list_item&amp;quot;,{&amp;quot;start&amp;quot;:1257,&amp;quot;end&amp;quot;:1285}]&quot;&gt;Запись на прием через приложение&lt;/p&gt;" style="rounded=0;whiteSpace=wrap;html=1;fillColor=#fff2cc;strokeColor=#d6b656;" vertex="1" parent="1">
          <mxGeometry x="100" y="195" width="80" height="60" as="geometry" />
        </mxCell>
        <mxCell id="0HlxKGMz-UtDuhilrdEh-16" value="&lt;p data-pm-slice=&quot;1 1 [&amp;quot;list&amp;quot;,{&amp;quot;spread&amp;quot;:false,&amp;quot;start&amp;quot;:1364,&amp;quot;end&amp;quot;:1430},&amp;quot;regular_list_item&amp;quot;,{&amp;quot;start&amp;quot;:1364,&amp;quot;end&amp;quot;:1401}]&quot;&gt;Просмотр&amp;nbsp; карты пациента&lt;/p&gt;" style="rounded=0;whiteSpace=wrap;html=1;fillColor=#fff2cc;strokeColor=#d6b656;" vertex="1" parent="1">
          <mxGeometry x="540" y="195" width="80" height="60" as="geometry" />
        </mxCell>
        <mxCell id="0HlxKGMz-UtDuhilrdEh-17" value="&lt;p data-pm-slice=&quot;1 1 []&quot;&gt;Онлайн-запись&lt;/p&gt;" style="rounded=0;whiteSpace=wrap;html=1;fillColor=#f8cecc;strokeColor=#b85450;" vertex="1" parent="1">
          <mxGeometry x="100" y="295" width="80" height="60" as="geometry" />
        </mxCell>
        <mxCell id="0HlxKGMz-UtDuhilrdEh-18" value="&lt;p data-pm-slice=&quot;1 1 [&amp;quot;list&amp;quot;,{&amp;quot;spread&amp;quot;:false,&amp;quot;start&amp;quot;:1364,&amp;quot;end&amp;quot;:1430},&amp;quot;regular_list_item&amp;quot;,{&amp;quot;start&amp;quot;:1402,&amp;quot;end&amp;quot;:1430}]&quot;&gt;Быстрое оформление рецепта&lt;/p&gt;" style="rounded=0;whiteSpace=wrap;html=1;fillColor=#fff2cc;strokeColor=#d6b656;" vertex="1" parent="1">
          <mxGeometry x="750" y="195" width="80" height="60" as="geometry" />
        </mxCell>
        <mxCell id="0HlxKGMz-UtDuhilrdEh-21" value="&lt;p data-pm-slice=&quot;1 1 [&amp;quot;list&amp;quot;,{&amp;quot;spread&amp;quot;:false,&amp;quot;start&amp;quot;:1456,&amp;quot;end&amp;quot;:1516},&amp;quot;regular_list_item&amp;quot;,{&amp;quot;start&amp;quot;:1487,&amp;quot;end&amp;quot;:1516}]&quot;&gt;Анализ статистики посещений&lt;/p&gt;" style="rounded=0;whiteSpace=wrap;html=1;fillColor=#fff2cc;strokeColor=#d6b656;" vertex="1" parent="1">
          <mxGeometry x="1086" y="195" width="80" height="60" as="geometry" />
        </mxCell>
        <mxCell id="0HlxKGMz-UtDuhilrdEh-22" value="&lt;p data-pm-slice=&quot;1 1 [&amp;quot;list&amp;quot;,{&amp;quot;spread&amp;quot;:false,&amp;quot;start&amp;quot;:1456,&amp;quot;end&amp;quot;:1516},&amp;quot;regular_list_item&amp;quot;,{&amp;quot;start&amp;quot;:1456,&amp;quot;end&amp;quot;:1486}]&quot;&gt;Поиск информации о пациентах&lt;/p&gt;" style="rounded=0;whiteSpace=wrap;html=1;fillColor=#fff2cc;strokeColor=#d6b656;" vertex="1" parent="1">
          <mxGeometry x="883" y="195" width="80" height="60" as="geometry" />
        </mxCell>
        <mxCell id="0HlxKGMz-UtDuhilrdEh-26" value="&lt;p data-pm-slice=&quot;1 1 []&quot;&gt;Уведомления для пациентов&lt;/p&gt;" style="rounded=0;whiteSpace=wrap;html=1;fillColor=#f8cecc;strokeColor=#b85450;" vertex="1" parent="1">
          <mxGeometry y="295" width="80" height="60" as="geometry" />
        </mxCell>
        <mxCell id="0HlxKGMz-UtDuhilrdEh-27" value="&lt;p data-pm-slice=&quot;1 1 []&quot;&gt;Формирование отчетов&lt;/p&gt;" style="rounded=0;whiteSpace=wrap;html=1;fillColor=#f8cecc;strokeColor=#b85450;" vertex="1" parent="1">
          <mxGeometry x="986" y="295" width="80" height="60" as="geometry" />
        </mxCell>
        <mxCell id="0HlxKGMz-UtDuhilrdEh-28" value="&lt;p data-pm-slice=&quot;1 1 []&quot;&gt;Доступ к медицинским картам&lt;/p&gt;" style="rounded=0;whiteSpace=wrap;html=1;fillColor=#f8cecc;strokeColor=#b85450;" vertex="1" parent="1">
          <mxGeometry x="540" y="295" width="80" height="60" as="geometry" />
        </mxCell>
        <mxCell id="0HlxKGMz-UtDuhilrdEh-29" value="&lt;h3 data-pm-slice=&quot;1 1 []&quot;&gt;&lt;strong&gt;Релиз 2&lt;/strong&gt;&lt;/h3&gt;" style="text;html=1;align=center;verticalAlign=middle;whiteSpace=wrap;rounded=0;fontSize=15;fontStyle=1" vertex="1" parent="1">
          <mxGeometry x="-205" y="415" width="80" height="30" as="geometry" />
        </mxCell>
        <mxCell id="0HlxKGMz-UtDuhilrdEh-30" value="&lt;p data-pm-slice=&quot;1 1 []&quot;&gt;Отмена и перенос записи&lt;/p&gt;" style="rounded=0;whiteSpace=wrap;html=1;fillColor=#f8cecc;strokeColor=#b85450;" vertex="1" parent="1">
          <mxGeometry x="200" y="400" width="80" height="60" as="geometry" />
        </mxCell>
        <mxCell id="0HlxKGMz-UtDuhilrdEh-32" value="&lt;p data-pm-slice=&quot;1 1 []&quot;&gt;Анализ загруженности врачей&lt;/p&gt;" style="rounded=0;whiteSpace=wrap;html=1;fillColor=#f8cecc;strokeColor=#b85450;" vertex="1" parent="1">
          <mxGeometry x="1086" y="400" width="80" height="60" as="geometry" />
        </mxCell>
      </root>
    </mxGraphModel>
  </diagram>
</mxfile>
